<svg xmlns="http://www.w3.org/2000/svg" xmlns:xlink="http://www.w3.org/1999/xlink" width="500" zoomAndPan="magnify" viewBox="0 0 375 374.999991" height="500" preserveAspectRatio="xMidYMid meet" version="1.0"><defs><clipPath id="439fecdd5a"><path d="M 7.378906 91 L 119 91 L 119 272 L 7.378906 272 Z M 7.378906 91 " clip-rule="nonzero"/></clipPath><clipPath id="4063132505"><path d="M 256 91 L 367.378906 91 L 367.378906 272 L 256 272 Z M 256 91 " clip-rule="nonzero"/></clipPath><clipPath id="f31f683ff3"><path d="M 136 79 L 238 79 L 238 297.902344 L 136 297.902344 Z M 136 79 " clip-rule="nonzero"/></clipPath></defs><g clip-path="url(#439fecdd5a)"><path fill="#a848c5" d="M 113.121094 244.070312 L 102.261719 233.933594 L 46.507812 181.738281 L 102.261719 129.574219 L 113.121094 119.4375 C 119.511719 113.457031 119.859375 103.382812 113.878906 96.992188 C 107.894531 90.601562 97.824219 90.253906 91.433594 96.234375 L 51.921875 133.195312 L 12.414062 170.152344 C 9.203125 173.144531 7.378906 177.363281 7.378906 181.738281 C 7.378906 186.144531 9.203125 190.332031 12.414062 193.320312 L 91.433594 267.238281 C 94.484375 270.105469 98.390625 271.519531 102.261719 271.519531 C 106.511719 271.519531 110.730469 269.820312 113.847656 266.484375 C 119.859375 260.09375 119.511719 250.050781 113.121094 244.070312 Z M 113.121094 244.070312 " fill-opacity="1" fill-rule="nonzero"/></g><g clip-path="url(#4063132505)"><path fill="#a848c5" d="M 362.574219 170.152344 L 323.066406 133.195312 L 283.558594 96.234375 C 277.167969 90.222656 267.09375 90.570312 261.113281 96.960938 C 255.132812 103.351562 255.445312 113.425781 261.867188 119.40625 L 272.730469 129.542969 L 301.378906 156.363281 L 328.480469 181.738281 L 272.699219 233.902344 L 261.835938 244.039062 C 255.445312 250.019531 255.101562 260.09375 261.082031 266.484375 C 264.199219 269.820312 268.449219 271.519531 272.667969 271.519531 C 276.539062 271.519531 280.441406 270.105469 283.527344 267.238281 L 362.542969 193.320312 C 365.753906 190.332031 367.582031 186.113281 367.582031 181.738281 C 367.613281 177.328125 365.785156 173.144531 362.574219 170.152344 Z M 362.574219 170.152344 " fill-opacity="1" fill-rule="nonzero"/></g><g clip-path="url(#f31f683ff3)"><path fill="#a848c5" d="M 226.957031 80.527344 C 218.742188 77.472656 209.578125 81.660156 206.527344 89.875 L 137.269531 276.085938 C 134.214844 284.300781 138.402344 293.460938 146.617188 296.515625 C 148.445312 297.207031 150.300781 297.523438 152.160156 297.523438 C 158.613281 297.523438 164.65625 293.558594 167.046875 287.167969 L 236.304688 100.925781 C 239.359375 92.710938 235.203125 83.582031 226.957031 80.527344 Z M 226.957031 80.527344 " fill-opacity="1" fill-rule="nonzero"/></g></svg>